<?xml version="1.0" encoding="utf-8"?>
<!-- Generator: Adobe Illustrator 16.0.0, SVG Export Plug-In . SVG Version: 6.00 Build 0)  -->
<!DOCTYPE svg PUBLIC "-//W3C//DTD SVG 1.1//EN" "http://www.w3.org/Graphics/SVG/1.1/DTD/svg11.dtd">
<svg version="1.1" id="Layer_1" xmlns="http://www.w3.org/2000/svg" xmlns:xlink="http://www.w3.org/1999/xlink" x="0px" y="0px"
	 width="100px" height="100px" viewBox="0 0 100 100" enable-background="new 0 0 100 100" xml:space="preserve">
<g>
	<g>
		<path d="M92.45,87.277L55.117,49.945l37.221-37.224c1.413-1.413,1.413-3.705,0-5.115c-1.411-1.413-3.703-1.413-5.115,0L50,44.828
			L12.778,7.607c-1.413-1.413-3.706-1.413-5.115,0c-1.413,1.409-1.413,3.702,0,5.115l37.22,37.223L7.55,87.277
			c-1.413,1.413-1.413,3.71,0,5.122c1.409,1.406,3.703,1.406,5.115,0L50,55.061l37.334,37.337c1.415,1.406,3.705,1.406,5.115,0
			C93.863,90.987,93.863,88.69,92.45,87.277z"/>
	</g>
</g>
</svg>
