<?xml version="1.0" encoding="utf-8"?>
<!-- Generator: Adobe Illustrator 16.0.0, SVG Export Plug-In . SVG Version: 6.00 Build 0)  -->
<!DOCTYPE svg PUBLIC "-//W3C//DTD SVG 1.1//EN" "http://www.w3.org/Graphics/SVG/1.1/DTD/svg11.dtd">
<svg version="1.1" id="Layer_1" xmlns="http://www.w3.org/2000/svg" xmlns:xlink="http://www.w3.org/1999/xlink" x="0px" y="0px"
	 width="100px" height="100px" viewBox="0 0 100 100" enable-background="new 0 0 100 100" xml:space="preserve">
<g id="portal">
	<g>
		<path fill-rule="evenodd" clip-rule="evenodd" d="M83.238,5.683H16.762c-9.18,0-16.619,7.438-16.619,16.618v55.398
			c0,9.181,7.439,16.619,16.619,16.619h66.477c9.182,0,16.619-7.438,16.619-16.619V22.3C99.857,13.12,92.42,5.683,83.238,5.683z
			 M94.318,72.158c0,9.179-7.438,16.622-16.619,16.622H22.302c-9.18,0-16.619-7.443-16.619-16.622V33.381h88.636V72.158z
			 M5.683,27.841c0-9.181,7.439-16.62,16.619-16.62h55.397c9.181,0,16.619,7.439,16.619,16.62H5.683z M22.302,22.3h5.54v-5.539
			h-5.54V22.3z M33.381,22.3h5.54v-5.539h-5.54V22.3z M44.461,22.3h33.238v-5.539H44.461V22.3z"/>
	</g>
</g>
</svg>
