<?xml version="1.0" encoding="utf-8"?>
<!-- Generator: Adobe Illustrator 16.0.0, SVG Export Plug-In . SVG Version: 6.00 Build 0)  -->
<!DOCTYPE svg PUBLIC "-//W3C//DTD SVG 1.1//EN" "http://www.w3.org/Graphics/SVG/1.1/DTD/svg11.dtd">
<svg version="1.1" id="Layer_1" xmlns="http://www.w3.org/2000/svg" xmlns:xlink="http://www.w3.org/1999/xlink" x="0px" y="0px"
	 width="100px" height="100px" viewBox="0 0 100 100" enable-background="new 0 0 100 100" xml:space="preserve">
<g>
	<g>
		<path fill-rule="evenodd" clip-rule="evenodd" d="M74.946,50.025c-6.991-1.491-4.446-3.732-3.331-5.824
			c1.11-2.087,0.473-9.258-6.519-9.854c-6.985-0.597-13.028,1.943-15.568,2.539c-2.54,0.602-2.385-0.447-1.748-3.732
			c0.638-3.285,0.638-14.779-18.743-6.719c-5.135,2.139-13.181,8.811-19.853,16.723c-6.672,7.917-17.637,22.757,1.748,35.984
			c19.375,13.232,53.373,8.065,66.399-5.223S81.938,51.521,74.946,50.025z M41.623,81.291c-15.998,1.655-29.918-5.12-31.101-15.124
			C9.339,56.163,21.353,46.715,37.351,45.064c15.995-1.655,29.926,5.12,31.099,15.124C69.631,70.192,57.623,79.641,41.623,81.291z
			 M43.709,50.755c-4.143-1.089-8.98-0.853-13.016,0.545c-3.845,1.337-7.114,3.866-8.816,7.768c-1.09,2.493-1.373,7.043-0.154,9.541
			c3.994,8.21,14.985,9.942,23.981,4.734c4-2.313,7.22-8.256,6.857-12.609C52.166,55.963,48.521,52.02,43.709,50.755z
			 M36.832,71.061H26.303V60.533h10.528V71.061z M37.572,65.108c-1.26-1.337-0.555-4.103,1.074-4.575
			c1.974-0.576,3.588,0.95,3.408,2.703C41.879,64.989,38.826,66.439,37.572,65.108z M90.806,17.84
			c-2.684-1.876-5.855-3.29-9.125-4.051c-2.817-0.663-12.954-1.81-13.283,2.714c-0.144,2.072,1.049,3.784,3.901,3.588
			c2.391-0.159,9.7-1.83,15.797,4.817c6.098,6.652,5.501,11.371,4.75,15.777c-0.75,4.411,5.244,5.793,6.447,1.095
			C101.478,33.226,98.572,23.279,90.806,17.84z M73.395,23.706c-2.982-0.16-4.977,0.833-4.977,3.192
			c0,2.359,3.408,2.087,6.395,2.781c2.987,0.689,3.696,3.331,3.414,5.691c-0.288,2.359,0.282,4.025,2.128,4.164
			c1.851,0.139,4.267-0.971,3.845-5.413C83.768,29.679,81.069,24.127,73.395,23.706z"/>
	</g>
</g>
</svg>
