<?xml version="1.0" encoding="utf-8"?>
<!-- Generator: Adobe Illustrator 16.0.0, SVG Export Plug-In . SVG Version: 6.00 Build 0)  -->
<!DOCTYPE svg PUBLIC "-//W3C//DTD SVG 1.1//EN" "http://www.w3.org/Graphics/SVG/1.1/DTD/svg11.dtd">
<svg version="1.1" id="Layer_1" xmlns="http://www.w3.org/2000/svg" xmlns:xlink="http://www.w3.org/1999/xlink" x="0px" y="0px"
	 width="100px" height="100px" viewBox="0 0 100 100" enable-background="new 0 0 100 100" xml:space="preserve">
<path d="M83.352,33.273c-0.01-3.214-0.494-6.309-1.352-9.249c-2.09,1.1-4.43,1.778-6.949,1.778H65.028
	C56.732,25.803,50,19.073,50,10.777c0-4.072,1.635-7.753,4.262-10.459c-1.412-0.185-2.845-0.31-4.305-0.31
	c-18.449,0-33.314,14.841-33.314,33.266v35.098c0,5.18,4.979,9.382,11.119,9.382H44.44v22.239h11.12V77.753h16.679
	c6.141,0,11.119-4.202,11.119-9.382V33.273H83.352z M72.238,66.634H27.761V35.532v-2.259c0-8.269,4.566-15.495,11.315-19.299
	c1.58,12.914,12.617,22.947,25.952,22.947h7.21V66.634z"/>
</svg>
