<?xml version="1.0" encoding="utf-8"?>
<!-- Generator: Adobe Illustrator 16.0.0, SVG Export Plug-In . SVG Version: 6.00 Build 0)  -->
<!DOCTYPE svg PUBLIC "-//W3C//DTD SVG 1.1//EN" "http://www.w3.org/Graphics/SVG/1.1/DTD/svg11.dtd">
<svg version="1.1" id="Layer_1" xmlns="http://www.w3.org/2000/svg" xmlns:xlink="http://www.w3.org/1999/xlink" x="0px" y="0px"
	 width="100px" height="100px" viewBox="0 0 100 100" enable-background="new 0 0 100 100" xml:space="preserve">
<g>
	<path d="M49.985-0.173c-6.153,0-11.141,4.988-11.141,11.141s4.988,11.141,11.141,11.141c6.147,0,11.141-4.988,11.141-11.141
		S56.132-0.173,49.985-0.173L49.985-0.173z"/>
	<path d="M55.479,38.897L55.479,38.897V61.18H44.338V38.897H55.479 M82.968,10.936c-1.551,0-3.096,0.593-4.271,1.773L61.729,29.676
		c-1.784-1.213-3.933-1.92-6.25-1.92H44.338c-2.486,0-4.76,0.843-6.615,2.22L20.5,12.752c-1.088-1.088-2.513-1.632-3.938-1.632
		s-2.851,0.544-3.938,1.632c-2.176,2.176-2.176,5.701,0,7.877l19.693,19.692c0.261,0.261,0.587,0.386,0.881,0.588v53.692
		c0,3.073,2.497,5.57,5.57,5.57c3.079,0,5.57-2.497,5.57-5.57V72.32h11.142v22.282c0,3.073,2.497,5.57,5.57,5.57
		c3.079,0,5.57-2.497,5.57-5.57V41.878L87.238,21.25c2.36-2.355,2.36-6.186,0-8.541C86.058,11.528,84.513,10.936,82.968,10.936
		L82.968,10.936z"/>
</g>
</svg>
