<?xml version="1.0" encoding="utf-8"?>
<!-- Generator: Adobe Illustrator 16.0.0, SVG Export Plug-In . SVG Version: 6.00 Build 0)  -->
<!DOCTYPE svg PUBLIC "-//W3C//DTD SVG 1.1//EN" "http://www.w3.org/Graphics/SVG/1.1/DTD/svg11.dtd">
<svg version="1.1" id="Layer_1" xmlns="http://www.w3.org/2000/svg" xmlns:xlink="http://www.w3.org/1999/xlink" x="0px" y="0px"
	 width="100px" height="100px" viewBox="0 0 100 100" enable-background="new 0 0 100 100" xml:space="preserve">
<g>
	<g>
		<path fill-rule="evenodd" clip-rule="evenodd" d="M4.167,19.463h91.667c2.303,0,4.167-1.632,4.167-3.648
			c0-2.015-1.864-3.648-4.167-3.648H4.167C1.864,12.167,0,13.8,0,15.815C0,17.832,1.864,19.463,4.167,19.463z M4.167,53.648h91.667
			c2.303,0,4.167-1.632,4.167-3.648c0-2.015-1.864-3.648-4.167-3.648H4.167C1.864,46.352,0,47.985,0,50
			C0,52.017,1.864,53.648,4.167,53.648z M95.9,80.537H4.099c-2.306,0-4.173,1.635-4.173,3.647c0,2.017,1.867,3.648,4.173,3.648H95.9
			c2.307,0,4.174-1.632,4.174-3.648C100.074,82.172,98.207,80.537,95.9,80.537z"/>
	</g>
</g>
</svg>
