<?xml version="1.0" encoding="utf-8"?>
<!-- Generator: Adobe Illustrator 16.0.0, SVG Export Plug-In . SVG Version: 6.00 Build 0)  -->
<!DOCTYPE svg PUBLIC "-//W3C//DTD SVG 1.1//EN" "http://www.w3.org/Graphics/SVG/1.1/DTD/svg11.dtd">
<svg version="1.1" id="Layer_1" xmlns="http://www.w3.org/2000/svg" xmlns:xlink="http://www.w3.org/1999/xlink" x="0px" y="0px"
	 width="100px" height="100px" viewBox="0 0 100 100" enable-background="new 0 0 100 100" xml:space="preserve">
<g>
	<g>
		<path fill-rule="evenodd" clip-rule="evenodd" d="M60.449,0.158c-21.62,0-39.144,17.516-39.144,39.14
			c0,9.8,3.611,18.752,9.565,25.62L0.721,95.071c-1.094,1.092-1.094,2.86,0,3.952c1.093,1.093,2.862,1.093,3.953,0l30.151-30.151
			c6.867,5.955,15.821,9.567,25.624,9.567c21.616,0,39.14-17.529,39.14-39.142C99.589,17.674,82.065,0.158,60.449,0.158z
			 M60.449,72.848c-18.529,0-33.55-15.028-33.55-33.55c0-18.535,15.021-33.555,33.55-33.555c18.528,0,33.55,15.02,33.55,33.555
			C93.999,57.819,78.978,72.848,60.449,72.848z"/>
	</g>
</g>
</svg>
