<?xml version="1.0" encoding="utf-8"?>
<!-- Generator: Adobe Illustrator 16.0.0, SVG Export Plug-In . SVG Version: 6.00 Build 0)  -->
<!DOCTYPE svg PUBLIC "-//W3C//DTD SVG 1.1//EN" "http://www.w3.org/Graphics/SVG/1.1/DTD/svg11.dtd">
<svg version="1.1" id="Layer_1" xmlns="http://www.w3.org/2000/svg" xmlns:xlink="http://www.w3.org/1999/xlink" x="0px" y="0px"
	 width="100px" height="100px" viewBox="0 0 100 100" enable-background="new 0 0 100 100" xml:space="preserve">
<path fill-rule="evenodd" clip-rule="evenodd" d="M35.912,30.201c2.526-2.45,4.266-9.938,1.138-13.603
	c-1.234-1.452-7.975-8.058-9.893-9.957c-1.918-1.894-8.448-4.554-13.442,0c-4.988,4.553-9.593,7.968-9.593,15.182
	c0,7.207,3.454,29.226,24.954,49.339C50.563,91.274,67.842,95.45,75.133,95.834c7.29,0.377,13.379-2.021,18.188-9.088
	c4.444-6.535,2.296-12.304-0.435-15.297c-2.725-2.999-6.497-5.769-8.454-7.629c-4.08-3.863-10.553-3.658-14.754,1.79
	c-3.639,4.72-7.515,11.441-15.533,4.976c-3.39-2.73-16.27-14.031-22.55-21.948C26.37,42.058,27.246,38.617,35.912,30.201z"/>
</svg>
