<?xml version="1.0" encoding="utf-8"?>
<!-- Generator: Adobe Illustrator 16.0.0, SVG Export Plug-In . SVG Version: 6.00 Build 0)  -->
<!DOCTYPE svg PUBLIC "-//W3C//DTD SVG 1.1//EN" "http://www.w3.org/Graphics/SVG/1.1/DTD/svg11.dtd">
<svg version="1.1" id="Layer_1" xmlns="http://www.w3.org/2000/svg" xmlns:xlink="http://www.w3.org/1999/xlink" x="0px" y="0px"
	 width="100px" height="100px" viewBox="0 0 100 100" enable-background="new 0 0 100 100" xml:space="preserve">
<g>
	<path d="M80.487,49.801c0-6.008,0.013-11.013-9.987-12.146v24.292C80.5,60.813,80.487,55.813,80.487,49.801z"/>
	<path d="M70.5,17.701v10.011c15,1.229,19.974,10.578,19.974,22.061c0,11.487-4.974,20.835-19.974,22.061v10.068
		c20-1.247,29.902-15.123,29.902-32.1C100.402,32.824,90.5,18.944,70.5,17.701z"/>
	<path d="M17.655,32.5C10.783,32.5,0.5,35.53,0.5,42.366v14.871C0.5,64.072,10.783,72.5,17.655,72.5h9.305l34.855,19.654
		L60.5,91.255V8.348L26.96,32.5H17.655z M50.5,25.432v48.734L27.487,61.188l2.121,1.313H17.655c-1.373,0-7.155-3.897-7.155-5.264
		V42.5c0,0,5.782,0,7.155,0h11.953L50.5,25.432z"/>
</g>
</svg>
