<?xml version="1.0" encoding="utf-8"?>
<!-- Generator: Adobe Illustrator 16.0.0, SVG Export Plug-In . SVG Version: 6.00 Build 0)  -->
<!DOCTYPE svg PUBLIC "-//W3C//DTD SVG 1.1//EN" "http://www.w3.org/Graphics/SVG/1.1/DTD/svg11.dtd">
<svg version="1.1" id="Layer_1" xmlns="http://www.w3.org/2000/svg" xmlns:xlink="http://www.w3.org/1999/xlink" x="0px" y="0px"
	 width="100px" height="100px" viewBox="0 0 100 100" enable-background="new 0 0 100 100" xml:space="preserve">
<g>
	<path fill-rule="evenodd" clip-rule="evenodd" d="M71.38,33.505c-3.313-12.647-17.807-22.175-35.19-22.175
		c-19.832,0-35.907,12.395-35.907,27.683c0,9.109,5.731,17.163,14.539,22.208l-3.491,11.011l17.363-6.145l-0.005-0.004
		c2.419,0.398,4.928,0.613,7.501,0.613c1.149,0,2.282-0.048,3.403-0.134c-0.415-1.749-0.641-3.551-0.641-5.4
		C38.952,46.073,53.41,33.827,71.38,33.505z M47.238,27.941c1.523,0,2.762,1.238,2.762,2.768c0,1.529-1.238,2.767-2.762,2.767
		c-1.525,0-2.762-1.238-2.762-2.767C44.476,29.179,45.713,27.941,47.238,27.941z M25.141,27.941c1.524,0,2.763,1.238,2.763,2.768
		c0,1.529-1.238,2.767-2.763,2.767c-1.523,0-2.762-1.238-2.762-2.767C22.378,29.179,23.618,27.941,25.141,27.941z"/>
	<path fill-rule="evenodd" clip-rule="evenodd" d="M99.718,61.162c0-12.236-12.364-22.149-27.621-22.149
		s-27.621,9.913-27.621,22.149c0,12.229,12.364,22.145,27.621,22.145c1.328,0,2.596-0.167,3.868-0.313l-0.308,0.129l15.946,5.547
		l-2.836-9.953C95.381,74.67,99.718,68.349,99.718,61.162z M63.811,55.621c-1.526,0-2.762-1.234-2.762-2.767
		c0-1.526,1.235-2.769,2.762-2.769s2.762,1.242,2.762,2.769C66.572,54.387,65.337,55.621,63.811,55.621z M80.384,50.086
		c1.526,0,2.762,1.242,2.762,2.769c0,1.532-1.235,2.767-2.762,2.767c-1.527,0-2.764-1.234-2.764-2.767
		C77.62,51.328,78.856,50.086,80.384,50.086z"/>
</g>
</svg>
